<svg width="960" height="387" viewBox="0 0 960 387" fill="none" xmlns="http://www.w3.org/2000/svg">
<g clip-path="url(#clip0_1_2)">
<path d="M306.3 231.9V349.7H39.8V342.1H77.1V44.3H39.8V36.7H193.2V44.3H155.9V342.1H190.3C271.7 342.1 295.4 290.9 297.8 247.3L298.7 231.7L306.3 231.9Z" fill="#677A69"/>
<path d="M887.1 44.3V342.1H924.4V349.7H772V342.1H808.7V195.9H698V342.1H734.7V349.7H581.9V342.1H619.2V44.3H581.9V36.7H734.6V44.3H698V188.3H808.6V44.3H772V36.7H924.4V44.3H887.1Z" fill="#DCE6D4"/>
<path d="M641.3 291.4C640.2 336.1 623.6 355.8 585.9 355.8C523.7 355.8 513.2 305.9 507.9 262.6C501.4 208.7 491.1 198.9 434.6 196.9V342.2H472.6V349.8H318.6V342.2H355.9V44.3H318.5V36.7H466.3C548.8 36.7 595.3 62 595.3 114.9C595.3 178.6 528.5 192.5 465.6 194C465.8 194 465.1 194.4 465.6 194.4C569.6 199.1 591.7 225.7 595 293.2C595.9 312.7 597.9 337.7 612.9 337.7C625.2 337.7 633 320.3 633.9 290.3L641.3 291.4ZM448.4 189.6C458.9 189.6 475.7 188.5 486 182.2C504.5 171.9 511.3 147.6 511.3 117.8C511.3 65.3 488.3 44.2 450.3 44.2H434.6V189.3C438.6 189.6 443.3 189.6 448.4 189.6Z" fill="#677A69"/>
<path d="M823.7 297.6V293H845.1V264.9H823.7V260.3H873.3V264.9H849V293H873.3V297.6H823.7Z" fill="#687B69"/>
<path d="M823.7 215.8V210.5L873.3 191.6V196.6L857.7 202.4V224L873.3 229.8V234.5L823.7 215.8ZM853.9 203.8L835.4 210.6C832.6 211.6 828.2 213.1 828.2 213.1V213.2C828.2 213.2 832.4 214.5 835.4 215.6L853.9 222.5V203.8Z" fill="#687B69"/>
<path d="M823.7 165.7V161H873.3V165.6H823.7V165.7Z" fill="#687B69"/>
<path d="M823.7 131.1V109C823.7 100.1 828.8 94.9 837.1 94.9C843.2 94.9 847.2 97.5 849 103.2H849.2C850.9 98.1 854.7 96.4 862.4 96.1C870.4 95.8 872.4 94.9 873 94H873.3V99C872.5 100.1 870.7 100.4 862.2 100.8C853.6 101.2 851.2 104.2 851.2 111.4V126.5H873.3V131.1H823.7ZM847.2 110.6C847.2 103.4 843.7 99.7 837.5 99.7C831.3 99.7 827.8 102.5 827.8 110V126.5H847.2V110.6Z" fill="#687B69"/>
</g>
<defs>
<clipPath id="clip0_1_2">
<rect width="959.9" height="386.4" fill="white"/>
</clipPath>
</defs>
</svg>
